<?xml version="1.0" ?>

<!-- Uploaded to: SVG Repo, www.svgrepo.com, Generator: SVG Repo Mixer Tools -->
<svg width="800px" height="800px" viewBox="0 0 128 128" version="1.1" xml:space="preserve" xmlns="http://www.w3.org/2000/svg" xmlns:xlink="http://www.w3.org/1999/xlink">

<style type="text/css">
	
	.st13{fill:#286F0D;}
	.st14{fill:#63271D;}
	.st93{fill:#DF2B2B;}
	.st94{fill:#D1262C;}
	.st95{fill:#B7252C;}
	.st159{fill:#FFF5CA;}
	.st168{fill:#EDA07A;}
	.st169{fill:#FCBEBE;}
	.st170{fill:#EAD991;}
	.st171{fill:#582612;}
</style>

<path class="st93" d="M84.634,78.852c-5.039,14.218-14.271,28.415-24.831,28.415     c-4.559,0-8.868-1.061-12.701-2.94c-0.793-0.388-1.72-0.388-2.512,0c-3.834,1.879-8.142,2.94-12.701,2.94     C15.934,107.267,3,74.859,3,58.937c0-15.922,12.934-28.829,28.888-28.829c4.56,0,8.868,1.061,12.702,2.94     c0.792,0.388,1.719,0.388,2.511,0c3.834-1.879,8.142-2.94,12.702-2.94c0.448,0,0.894,0.01,1.337,0.03     c12.525,0.57,22.843,10.149,25.255,22.623C87.672,59.362,87.962,68.327,84.634,78.852z" id="XMLID_765_"/>

<path class="st13" d="M47.297,10.465c-3.058,4.796-3.434,10.402-1.551,15.28     c5.454-0.724,10.529-3.669,13.586-8.465S62.766,6.878,60.883,2C55.429,2.724,50.354,5.669,47.297,10.465z" id="XMLID_764_"/>

<path class="st14" d="M46.156,34.288c-1.104,0-2-0.896-2-2v-2.984c0-4.411-2.172-8.481-5.811-10.887     c-0.921-0.609-1.174-1.85-0.565-2.771c0.61-0.921,1.852-1.174,2.771-0.565c4.762,3.149,7.604,8.466,7.604,14.224v2.984     C48.156,33.392,47.261,34.288,46.156,34.288z"/>

<path class="st94" d="M23.504,58.937c0-12.312,7.737-22.816,18.62-26.948c-3.183-1.208-6.629-1.881-10.237-1.881     C15.934,30.107,3,43.015,3,58.937c0,15.922,12.934,48.33,28.888,48.33c4.432,0,8.623-1.009,12.374-2.79     C32.268,96.295,23.504,72.041,23.504,58.937z" id="XMLID_77_"/>

<path class="st95" d="M13.252,58.937c0-14.178,10.259-25.958,23.771-28.369c-1.667-0.3-3.382-0.46-5.135-0.46     C15.934,30.107,3,43.015,3,58.937c0,15.922,12.934,48.33,28.888,48.33c2.15,0,4.241-0.244,6.256-0.69     C24.082,101.857,13.252,73.505,13.252,58.937z" id="XMLID_58_"/>

<ellipse class="st168" cx="29.44" cy="40.603" id="XMLID_53_" rx="2.05" ry="2.067"/>

<ellipse class="st169" cx="20.572" cy="59.007" id="XMLID_54_" rx="2.05" ry="2.067"/>

<path class="st159" d="M105.078,125.195c10.97-2.179,19.394-11.499,19.895-22.813     c0.018-0.4,0.027-0.803,0.027-1.208c0-4.119-0.933-8.011-2.585-11.474c-0.129-0.271-0.194-0.561-0.225-0.853H59.955     c-0.031,0.293-0.065,0.6-0.225,0.854c-2.23,3.549-2.23,7.368-2.23,11.487c0,9.539,12.13,17.865,24.634,22.416     C91.39,126.61,99.273,126.348,105.078,125.195z" id="XMLID_798_"/>

<path class="st170" d="M90.724,102.403c7.61,0,13.78-6.069,13.78-13.556h-27.56     C76.944,96.333,83.113,102.403,90.724,102.403z" id="XMLID_801_"/>

<path class="st171" d="M92.144,97.625C92.143,97.625,92.143,97.625,92.144,97.625l-2.841-0.001c-1.104,0-2-0.896-1.999-2.001     c0-1.104,0.896-1.999,2-1.999c0,0,0,0,0.001,0l2.84,0.001c1.104,0,2,0.896,1.999,2.001C94.143,96.73,93.248,97.625,92.144,97.625     z"/>

<path class="st94" d="M105.078,117.961c-5.805,1.153-13.688,1.415-22.945-1.591     c-11.255-4.097-22.386-11.304-24.519-19.651c-0.239,1.435-0.47,2.949-0.47,4.455c0,9.539,12.485,17.878,24.989,22.43     c9.256,3.006,17.139,2.744,22.945,1.591c10.97-2.179,19.394-11.499,19.895-22.813c0.018-0.4,0.027-0.803,0.027-1.208     c0-1.244-0.095-2.465-0.259-3.663C123.26,107.74,115.273,115.936,105.078,117.961z" id="XMLID_59_"/>

</svg>