<?xml version="1.0" ?>

<!-- Uploaded to: SVG Repo, www.svgrepo.com, Generator: SVG Repo Mixer Tools -->
<svg width="800px" height="800px" viewBox="0 0 128 128" version="1.1" xml:space="preserve" xmlns="http://www.w3.org/2000/svg" xmlns:xlink="http://www.w3.org/1999/xlink">

<style type="text/css">
	.st13{fill:#286F0D;}
	.st14{fill:#63271D;}
	.st15{fill:#EB8102;}
	.st16{fill:#E37303;}
	.st17{fill:#D97102;}
	.st18{fill:#BF6302;}
	.st19{fill:#EA9735;}
	.st20{fill:#3E1A01;}
	.st21{fill:#C96A0A;}
</style>

<path class="st13" d="M40.012,14.365c-4.668,7.006-5.243,15.195-2.368,22.32      c8.327-1.057,16.075-5.359,20.744-12.366S63.631,9.126,60.756,2C52.428,3.057,44.68,7.359,40.012,14.365z" id="XMLID_804_"/>

<path class="st14" d="M38.666,46.738c-0.982,0-1.839-0.724-1.979-1.725l-0.417-3.131c0-6.737-3.48-12.962-9.311-16.649      c-0.934-0.591-1.211-1.826-0.621-2.76c0.59-0.933,1.826-1.212,2.759-0.621c6.955,4.4,11.124,11.826,11.171,19.889l0.379,2.722      c0.152,1.094-0.611,2.104-1.705,2.256C38.85,46.732,38.757,46.738,38.666,46.738z"/>

<path class="st15" d="M38.095,112.786c2.954,3.01,7.439,4.016,11.351,2.441     c15.772-6.352,21.347-23.904,22.756-28.739c3.009-9.633,2.747-17.837,1.593-23.878c-2.181-11.417-11.51-20.183-22.834-20.705     c-0.401-0.018-0.804-0.028-1.209-0.028c-0.853,0-1.616,0.042-2.318,0.123c-5.572,0.644-11.218,0.644-16.79,0     c-0.703-0.081-1.465-0.123-2.318-0.123c-14.425,0-24.168,10.548-26.119,26.384C0.799,79.669,6.4,108.229,26.579,115.719     c4.008,1.488,8.524,0.35,11.404-2.81L38.095,112.786L38.095,112.786z" id="XMLID_805_"/>

<path class="st16" d="M16.671,68.261c1.562-12.682,8.126-21.967,18.086-25.164     c-1.907-0.787-3.704-1.22-6.433-1.22c-14.425,0-24.168,10.548-26.119,26.384c-1.406,11.409,4.197,39.976,24.383,47.46     c3.584,1.329,7.567,0.553,10.43-1.888C20.122,104.295,15.364,78.869,16.671,68.261z" id="XMLID_1757_"/>

<path class="st17" d="M10.471,68.261c1.74-14.128,9.687-24.041,21.623-26.016     c-1.096-0.239-2.294-0.369-3.771-0.369c-14.425,0-24.168,10.548-26.119,26.384c-1.406,11.409,4.197,39.976,24.383,47.46     c2.561,0.95,5.327,0.823,7.743-0.216C14.578,107.721,9.078,79.57,10.471,68.261z" id="XMLID_1712_"/>

<path class="st18" d="M39.766,111.864c-17.678-29.032-2.169-44.837-1.244-46.024     c0.279-0.356-2.922-1.913-3.517-2.191c-2.524,3.524-16.456,20.449,1.195,50.305c0.073,0.123,0.164,0.225,0.256,0.327     c0.545-0.404,1.059-0.858,1.527-1.372l0.112-0.123h0c0.485,0.494,1.015,0.929,1.573,1.313     C40.121,113.457,40.201,112.579,39.766,111.864z" id="XMLID_1892_"/>

<path class="st19" d="M97.396,123.153c2.316,2.394,5.825,3.194,8.889,1.943     c12.362-5.049,16.732-19.007,17.836-22.853c2.358-7.659,2.152-14.182,1.248-18.985c-1.709-9.077-9.019-16.047-17.892-16.462     c-0.314-0.015-0.63-0.022-0.947-0.022c-0.51,0-0.977,0.019-1.415,0.057c-4.65,0.401-9.309,0.401-13.959,0     c-0.437-0.038-0.905-0.057-1.415-0.057c-11.303,0-18.937,8.387-20.466,20.978c-1.101,9.071,3.288,31.784,19.106,37.735     c3.138,1.181,6.671,0.277,8.929-2.236L97.396,123.153L97.396,123.153z" id="XMLID_243_"/>

<ellipse class="st20" cx="97.557" cy="93.287" id="XMLID_244_" rx="8.797" ry="11.749"/>

<path class="st21" d="M124.121,95.01c-1.104,3.845-5.473,17.804-17.836,22.853     c-3.064,1.251-6.573,0.451-8.889-1.943l-0.088,0.098c-2.257,2.513-5.79,3.417-8.929,2.236     c-12.638-4.755-17.976-20.205-19.051-30.853c-0.016,0.119-0.04,0.232-0.054,0.352c-1.101,9.071,3.288,31.784,19.106,37.735     c3.138,1.181,6.671,0.277,8.929-2.236l0.088-0.098c2.316,2.394,5.825,3.194,8.889,1.943     c12.362-5.049,16.732-19.007,17.836-22.853c1.863-6.053,2.123-11.392,1.704-15.738C125.579,89.14,125.052,91.985,124.121,95.01z" id="XMLID_2019_"/>

</svg>