<?xml version="1.0" ?>

<!-- Uploaded to: SVG Repo, www.svgrepo.com, Generator: SVG Repo Mixer Tools -->
<svg width="800px" height="800px" viewBox="0 0 128 128" version="1.1" xml:space="preserve" xmlns="http://www.w3.org/2000/svg" xmlns:xlink="http://www.w3.org/1999/xlink">

<style type="text/css">
	.st25{fill:#F9DCC7;}
	.st35{fill:#305209;}
	.st93{fill:#DF2B2B;}
	.st94{fill:#D1262C;}
	.st95{fill:#B7252C;}
	.st130{fill:#553D2D;}
</style>

<path class="st35" d="M79.242,19.247c-4.774-3.107-10.387-3.413-15.242-1.5c0.72,5.542,3.685,10.623,8.459,13.73     c4.774,3.107,10.354,3.489,15.209,1.576C86.948,27.511,84.016,22.354,79.242,19.247z" id="XMLID_684_"/>

<path class="st130" d="M97.474,75.912c-0.291,0-0.587-0.064-0.866-0.198l-9.005-4.334c-16.619-8-26.18-30.591-25.918-48.896     l-5.25,4.668C44.036,37.49,35.485,58.261,32.491,74.279c-0.203,1.086-1.249,1.803-2.333,1.598     c-1.086-0.203-1.802-1.248-1.599-2.333c2.897-15.497,11.253-37.74,25.265-49.423l8.824-7.846     c0.007-0.007,0.015-0.014,0.022-0.021L75.883,4.505c0.825-0.735,2.092-0.659,2.823,0.166c0.734,0.826,0.66,2.09-0.165,2.824     L65.902,18.733c-1.752,17.182,7.296,41.273,23.435,49.042l9.005,4.334c0.995,0.479,1.414,1.674,0.935,2.67     C98.933,75.494,98.218,75.912,97.474,75.912z"/>

<path class="st93" d="M38.709,122.909c6.858-1.606,15.009-10.526,17.641-19.703     c2.216-7.207,2.023-13.346,1.173-17.866c-1.606-8.542-8.476-15.102-16.814-15.492c-0.295-0.014-0.592-0.021-0.89-0.021     c-3.036,0-5.904,0.726-8.457,2.013c-0.527,0.266-1.144,0.266-1.672,0c-2.552-1.287-5.421-2.013-8.457-2.013     C10.611,69.828,2,77.63,2,89.569C2,106.059,11.325,129.323,38.709,122.909z" id="XMLID_681_"/>

<path class="st94" d="M20.6,89.569c0-8.186,4.049-14.425,10.018-17.54c-0.317,0.016-0.636-0.041-0.928-0.189     c-2.552-1.287-5.421-2.013-8.457-2.013C10.611,69.828,2,77.63,2,89.569c0,16.49,9.325,39.754,36.709,33.34     c0.331-0.078,0.668-0.187,1.004-0.298C25.774,117.866,20.6,101.845,20.6,89.569z" id="XMLID_28_"/>

<path class="st95" d="M12.333,89.569c0-9.874,5.896-16.903,13.941-19.045c-1.607-0.449-3.295-0.697-5.042-0.697     C10.611,69.828,2,77.63,2,89.569c0,15.761,8.532,37.691,33.197,33.999C18.424,120.621,12.333,102.889,12.333,89.569z" id="XMLID_1627_"/>

<path class="st25" d="M13.654,104.27c-0.87,0-1.671-0.572-1.922-1.45C10.52,98.582,9.878,94,9.878,89.569     c0-1.779,0.179-3.521,0.532-5.179c0.23-1.08,1.288-1.77,2.373-1.54c1.08,0.23,1.77,1.292,1.539,2.373     c-0.295,1.385-0.444,2.847-0.444,4.346c0,4.063,0.588,8.265,1.7,12.15c0.304,1.062-0.311,2.169-1.372,2.473     C14.021,104.245,13.837,104.27,13.654,104.27z"/>

<path class="st93" d="M89.291,122.909c-6.858-1.606-15.009-10.526-17.641-19.703     c-2.216-7.207-2.023-13.346-1.173-17.866c1.606-8.542,8.476-15.102,16.814-15.492c0.295-0.014,0.592-0.021,0.89-0.021     c3.036,0,5.904,0.726,8.457,2.013c0.527,0.266,1.144,0.266,1.672,0c2.552-1.287,5.421-2.013,8.457-2.013     c10.622,0,19.233,7.802,19.233,19.742C126,106.059,116.675,129.323,89.291,122.909z" id="XMLID_678_"/>

<path class="st94" d="M90.25,103.207c-2.216-7.207-2.023-13.346-1.173-17.866     c1.601-8.513,11.515-14.65,9.233-13.499c-0.527,0.266-1.144,0.266-1.671,0c-2.552-1.287-5.421-2.013-8.457-2.013     c-0.298,0-0.595,0.007-0.89,0.021c-8.339,0.39-15.208,6.95-16.814,15.492c-0.85,4.52-1.043,10.659,1.173,17.866     c2.631,9.177,10.783,18.096,17.641,19.703c6.998,1.639,12.81,1.331,17.596-0.298C100.256,120.426,92.754,111.94,90.25,103.207z" id="XMLID_104_"/>

<path class="st95" d="M99.624,122.909c-6.858-1.606-15.009-10.526-17.641-19.703     c-2.216-7.207-2.023-13.346-1.173-17.866c1.329-7.07,6.268-12.769,12.656-14.749c-1.679-0.494-3.451-0.763-5.285-0.763     c-0.298,0-0.595,0.007-0.89,0.021c-8.339,0.39-15.208,6.95-16.814,15.492c-0.85,4.52-1.043,10.659,1.173,17.866     c2.631,9.177,10.783,18.096,17.641,19.703c5.264,1.233,9.854,1.361,13.845,0.66C101.996,123.398,100.834,123.192,99.624,122.909z     " id="XMLID_1724_"/>

<path class="st25" d="M114.346,104.27c-0.183,0-0.367-0.025-0.552-0.078c-1.062-0.304-1.676-1.411-1.372-2.473     c1.112-3.885,1.7-8.087,1.7-12.15c0-1.499-0.149-2.961-0.444-4.346c-0.23-1.08,0.459-2.143,1.539-2.373     c1.084-0.229,2.143,0.459,2.373,1.54c0.354,1.658,0.532,3.4,0.532,5.179c0,4.43-0.642,9.012-1.854,13.25     C116.017,103.698,115.216,104.27,114.346,104.27z"/>

</svg>