<?xml version="1.0" ?>

<!-- Uploaded to: SVG Repo, www.svgrepo.com, Generator: SVG Repo Mixer Tools -->
<svg width="800px" height="800px" viewBox="0 0 128 128" version="1.1" xml:space="preserve" xmlns="http://www.w3.org/2000/svg" xmlns:xlink="http://www.w3.org/1999/xlink">

<style type="text/css">
	.st0{fill:#69A401;}
	.st52{fill:#776220;}
	.st53{fill:#90236B;}
	.st54{fill:#5D1A47;}
	.st55{fill:#99499A;}
	.st56{fill:#FCCAFA;}
</style>

<path class="st0" d="M65.694,10.65c-3.275,4.901-3.678,10.629-1.661,15.614     c5.841-0.739,11.276-3.749,14.551-8.65C81.858,12.713,82.261,6.985,80.245,2C74.403,2.739,68.968,5.749,65.694,10.65z" id="XMLID_1108_"/>

<path class="st52" d="M64.473,45.501c-1.104,0-2-0.896-2-2V29.899c0-4.505-2.337-8.669-6.251-11.138     c-0.935-0.589-1.214-1.824-0.625-2.759c0.59-0.934,1.825-1.213,2.758-0.624c5.083,3.206,8.117,8.634,8.117,14.521v13.602     C66.473,44.605,65.577,45.501,64.473,45.501z"/>

<ellipse class="st53" cx="92.237" cy="51.952" id="XMLID_1126_" rx="10.763" ry="10.549"/>

<ellipse class="st54" cx="35.763" cy="51.952" id="XMLID_1125_" rx="10.763" ry="10.549"/>

<ellipse class="st53" cx="53.71" cy="43.501" id="XMLID_1124_" rx="10.763" ry="10.549"/>

<ellipse class="st55" cx="73.566" cy="43.501" id="XMLID_1123_" rx="10.763" ry="10.549"/>

<ellipse class="st53" cx="64.473" cy="57.969" id="XMLID_1122_" rx="10.763" ry="10.549"/>

<ellipse class="st54" cx="84.329" cy="57.969" id="XMLID_1121_" rx="10.763" ry="10.549"/>

<ellipse class="st55" cx="46.526" cy="59.014" id="XMLID_1120_" rx="10.763" ry="10.549"/>

<ellipse class="st54" cx="35.763" cy="71.773" id="XMLID_1119_" rx="10.763" ry="10.549"/>

<ellipse class="st53" cx="53.71" cy="73.036" id="XMLID_1118_" rx="10.763" ry="10.549"/>

<ellipse class="st55" cx="73.566" cy="73.036" id="XMLID_1117_" rx="11.788" ry="11.367"/>

<ellipse class="st53" cx="90.099" cy="71.773" id="XMLID_1116_" rx="10.763" ry="10.549"/>

<ellipse class="st55" cx="45.501" cy="87.969" id="XMLID_1115_" rx="11.788" ry="11.367"/>

<ellipse class="st54" cx="64.518" cy="87.974" id="XMLID_1114_" rx="11.598" ry="11.367"/>

<ellipse class="st53" cx="84.329" cy="87.969" id="XMLID_1113_" rx="11.598" ry="11.367"/>

<ellipse class="st53" cx="56.264" cy="101.942" id="XMLID_1112_" rx="10.763" ry="10.549"/>

<ellipse class="st55" cx="75.235" cy="102.703" id="XMLID_1111_" rx="10.763" ry="10.549"/>

<ellipse class="st54" cx="67.027" cy="115.451" id="XMLID_1110_" rx="10.763" ry="10.549"/>

<ellipse class="st56" cx="31.446" cy="49.727" id="XMLID_1737_" rx="2.266" ry="3.422"/>

<ellipse class="st56" cx="51.443" cy="41.404" id="XMLID_1753_" rx="2.266" ry="3.422"/>

<ellipse class="st56" cx="42.947" cy="56.57" id="XMLID_1746_" rx="2.266" ry="3.422"/>

<ellipse class="st56" cx="31.446" cy="69.562" id="XMLID_1770_" rx="2.266" ry="3.422"/>

<ellipse class="st56" cx="40.68" cy="85.743" id="XMLID_1773_" rx="2.266" ry="3.422"/>

<ellipse class="st56" cx="53.71" cy="99.212" id="XMLID_1776_" rx="2.266" ry="3.422"/>

<ellipse class="st56" cx="50.654" cy="69.562" id="XMLID_1781_" rx="2.266" ry="3.422"/>

<ellipse class="st56" cx="62.803" cy="54.049" id="XMLID_1784_" rx="2.266" ry="3.422"/>

<ellipse class="st56" cx="73.566" cy="40.079" id="XMLID_1793_" rx="2.266" ry="3.422"/>

<ellipse class="st56" cx="71.3" cy="69.562" id="XMLID_1796_" rx="2.266" ry="3.422"/>

<ellipse class="st56" cx="62.803" cy="84.268" id="XMLID_1799_" rx="2.266" ry="3.422"/>

<ellipse class="st56" cx="72.731" cy="99.199" id="XMLID_1802_" rx="2.266" ry="3.422"/>

<ellipse class="st56" cx="64.473" cy="113.252" id="XMLID_1805_" rx="2.266" ry="3.422"/>

<ellipse class="st56" cx="81.474" cy="85.743" id="XMLID_1808_" rx="2.266" ry="3.422"/>

<ellipse class="st56" cx="89.971" cy="68.517" id="XMLID_1811_" rx="2.266" ry="3.422"/>

<ellipse class="st56" cx="81.474" cy="56.57" id="XMLID_1815_" rx="2.266" ry="3.422"/>

<ellipse class="st56" cx="95.092" cy="47.42" id="XMLID_1825_" rx="2.266" ry="3.422"/>

</svg>