<?xml version="1.0" ?>

<!-- Uploaded to: SVG Repo, www.svgrepo.com, Generator: SVG Repo Mixer Tools -->
<svg width="800px" height="800px" viewBox="0 0 128 128" version="1.1" xml:space="preserve" xmlns="http://www.w3.org/2000/svg" xmlns:xlink="http://www.w3.org/1999/xlink">

<style type="text/css">
	.st13{fill:#286F0D;}
	.st14{fill:#63271D;}
	.st27{fill:#7D4B12;}
	.st28{fill:#75480C;}
	.st29{fill:#66410C;}
	.st30{fill:#88550D;}
	.st31{fill:#FFFEE9;}
	.st32{fill:#9B9F1A;}
	.st33{fill:#F6E177;}
	.st34{fill:#443A00;}
</style>

<path class="st13" d="M38.409,11.423c-3.604,5.339-4.047,11.579-1.828,17.009      c6.428-0.806,12.409-4.084,16.013-9.423S56.641,7.43,54.422,2C47.994,2.806,42.013,6.084,38.409,11.423z" id="XMLID_124_"/>

<path class="st14" d="M37.065,41.79c-1.104,0-2-0.896-2-2v-7.397c0-4.965-2.604-9.556-6.965-12.279      c-0.937-0.585-1.222-1.819-0.637-2.756c0.585-0.937,1.818-1.222,2.756-0.637c5.539,3.459,8.846,9.318,8.846,15.672v7.397      C39.065,40.895,38.17,41.79,37.065,41.79z"/>

<ellipse class="st27" cx="37.57" cy="75.715" id="XMLID_119_" rx="31.57" ry="38.311"/>

<path class="st28" d="M19.464,75.715c0-18.354,10.638-33.685,24.838-37.43c-2.17-0.572-4.421-0.882-6.732-0.882     C20.134,37.403,6,54.556,6,75.715c0,21.159,14.134,38.311,31.57,38.311c2.311,0,4.562-0.31,6.732-0.882     C30.102,109.4,19.464,94.069,19.464,75.715z" id="XMLID_1720_"/>

<path class="st29" d="M13.25,75.715c0-19.67,12.218-35.869,27.945-38.052c-1.19-0.165-2.398-0.259-3.625-0.259     C20.134,37.403,6,54.556,6,75.715c0,21.159,14.134,38.311,31.57,38.311c1.227,0,2.435-0.094,3.625-0.259     C25.468,111.584,13.25,95.385,13.25,75.715z" id="XMLID_1689_"/>

<path class="st30" d="M28.99,49.896c2.899,3.085,8.454,9.823,16.387,0c0,0,6.555-0.662,10.365-5.501     c-5.139-4.399-11.404-6.992-18.171-6.992c-6.67,0-12.853,2.517-17.951,6.802C21.001,46.875,23.692,49.526,28.99,49.896z" id="XMLID_174_"/>

<path class="st31" d="M19.587,89.81c-0.897,0-1.714-0.608-1.939-1.519c-0.926-3.729-1.395-7.612-1.395-11.543     c0-5.262,0.83-10.378,2.468-15.208c0.354-1.046,1.49-1.602,2.536-1.252c1.046,0.355,1.606,1.49,1.252,2.537     c-1.497,4.414-2.256,9.099-2.256,13.923c0,3.605,0.43,7.165,1.277,10.58c0.266,1.071-0.387,2.156-1.459,2.423     C19.908,89.791,19.746,89.81,19.587,89.81z"/>

<path class="st31" d="M24.53,98.22c-0.53,0-1.03-0.21-1.41-0.59c-0.1-0.09-0.18-0.19-0.25-0.3c-0.08-0.11-0.14-0.23-0.19-0.351     c-0.05-0.12-0.08-0.239-0.11-0.37c-0.03-0.13-0.04-0.26-0.04-0.39s0.02-0.26,0.04-0.39c0.03-0.13,0.06-0.261,0.11-0.38     c0.05-0.12,0.12-0.23,0.19-0.341c0.07-0.109,0.15-0.21,0.25-0.31c0.09-0.09,0.19-0.17,0.3-0.24c0.11-0.08,0.23-0.14,0.35-0.189     c0.12-0.051,0.24-0.09,0.37-0.11c0.26-0.06,0.52-0.06,0.78,0c0.13,0.021,0.26,0.06,0.38,0.11c0.12,0.05,0.23,0.109,0.34,0.189     c0.11,0.07,0.21,0.15,0.31,0.24c0.09,0.1,0.17,0.2,0.24,0.31c0.08,0.11,0.14,0.221,0.19,0.341c0.05,0.119,0.09,0.25,0.11,0.38     c0.03,0.13,0.04,0.26,0.04,0.39s-0.01,0.26-0.04,0.39c-0.02,0.131-0.06,0.25-0.11,0.37c-0.05,0.12-0.11,0.24-0.18,0.351     c-0.08,0.109-0.16,0.21-0.25,0.3c-0.1,0.1-0.2,0.18-0.31,0.25c-0.11,0.07-0.22,0.14-0.34,0.189c-0.12,0.051-0.25,0.08-0.38,0.11     C24.8,98.21,24.66,98.22,24.53,98.22z"/>

<path class="st32" d="M122,95.167C122,112.196,107.958,126,90.636,126s-30.973-14.208-31.364-30.833     c-0.4-17.024,14.042-30.833,31.364-30.833S122,78.139,122,95.167z" id="XMLID_171_"/>

<ellipse class="st33" cx="90.636" cy="93.167" id="XMLID_172_" rx="8.083" ry="7.894"/>

<path class="st29" d="M90.636,121.867c-16.615,0-30.203-12.702-31.286-28.766      c-0.046,0.684-0.078,1.371-0.078,2.067c0,17.029,14.042,30.833,31.364,30.833S122,112.196,122,95.167      c0-0.695-0.032-1.383-0.078-2.067C120.839,109.164,107.251,121.867,90.636,121.867z" id="XMLID_1867_"/>

<path class="st34" d="M90.636,79.588c-1.104,0-2-0.896-2-2v-7.297c0-1.104,0.896-2,2-2s2,0.896,2,2v7.297       C92.636,78.692,91.741,79.588,90.636,79.588z"/>

<path class="st34" d="M79.357,84.151c-0.504,0-1.008-0.189-1.397-0.569l-5.283-5.16c-0.79-0.771-0.805-2.038-0.033-2.828       c0.772-0.791,2.039-0.805,2.828-0.033l5.283,5.16c0.79,0.771,0.805,2.038,0.033,2.828       C80.396,83.95,79.876,84.151,79.357,84.151z"/>

<path class="st34" d="M74.685,95.167h-7.471c-1.104,0-2-0.896-2-2s0.896-2,2-2h7.471c1.104,0,2,0.896,2,2       S75.79,95.167,74.685,95.167z"/>

<path class="st34" d="M74.074,111.343c-0.52,0-1.039-0.201-1.431-0.603c-0.772-0.79-0.757-2.057,0.033-2.828l5.283-5.159       c0.791-0.771,2.058-0.757,2.828,0.033c0.772,0.79,0.757,2.057-0.033,2.828l-5.283,5.159       C75.083,111.153,74.578,111.343,74.074,111.343z"/>

<path class="st34" d="M90.636,118.043c-1.104,0-2-0.896-2-2v-7.297c0-1.104,0.896-2,2-2s2,0.896,2,2v7.297       C92.636,117.147,91.741,118.043,90.636,118.043z"/>

<path class="st34" d="M107.198,111.343c-0.504,0-1.008-0.189-1.397-0.569l-5.283-5.159c-0.79-0.771-0.805-2.038-0.033-2.828       c0.771-0.79,2.038-0.805,2.828-0.033l5.283,5.159c0.79,0.771,0.805,2.038,0.033,2.828       C108.237,111.142,107.718,111.343,107.198,111.343z"/>

<path class="st34" d="M114.059,95.167h-7.471c-1.104,0-2-0.896-2-2s0.896-2,2-2h7.471c1.104,0,2,0.896,2,2       S115.163,95.167,114.059,95.167z"/>

<path class="st34" d="M101.916,84.151c-0.52,0-1.039-0.201-1.431-0.603c-0.772-0.79-0.757-2.057,0.033-2.828l5.283-5.16       c0.791-0.771,2.057-0.757,2.828,0.033c0.772,0.79,0.757,2.057-0.033,2.828l-5.283,5.16       C102.924,83.962,102.419,84.151,101.916,84.151z"/>

</svg>
