<?xml version="1.0" ?>

<!-- Uploaded to: SVG Repo, www.svgrepo.com, Generator: SVG Repo Mixer Tools -->
<svg width="800px" height="800px" viewBox="0 0 128 128" version="1.1" xml:space="preserve" xmlns="http://www.w3.org/2000/svg" xmlns:xlink="http://www.w3.org/1999/xlink">

<style type="text/css">
	.st13{fill:#286F0D;}
	.st14{fill:#63271D;}
	.st25{fill:#F9DCC7;}
	.st161{fill:#F87302;}
	.st162{fill:#FF7B22;}
	.st163{fill:#FC7F10;}
	.st164{fill:#F8A200;}
	.st165{fill:#F8DC91;}
	.st166{fill:#FFFFFF;}
	.st167{fill:#F5D7D5;}
</style>

<path class="st13" d="M40.715,10.205c-2.974,4.649-3.34,10.082-1.508,14.811      c5.305-0.701,10.24-3.556,13.214-8.205S55.761,6.728,53.929,2C48.625,2.701,43.689,5.556,40.715,10.205z" id="XMLID_98_"/>

<path class="st14" d="M39.606,34.358c-1.104,0-2-0.896-2-2v-3.895c0-4.253-2.103-8.178-5.625-10.499      c-0.922-0.607-1.177-1.848-0.569-2.771c0.607-0.921,1.848-1.177,2.771-0.569c4.648,3.063,7.423,8.236,7.423,13.839v3.895      C41.606,33.463,40.711,34.358,39.606,34.358z"/>

<ellipse class="st161" cx="39.057" cy="69.581" id="XMLID_99_" rx="37.057" ry="37.223"/>

<path class="st162" d="M20.6,69.581c0-17.331,11.792-31.895,27.757-36.04c-2.972-0.772-6.088-1.183-9.3-1.183     C18.591,32.358,2,49.023,2,69.581s16.591,37.223,37.057,37.223c3.212,0,6.328-0.411,9.3-1.183     C32.392,101.476,20.6,86.912,20.6,69.581z" id="XMLID_287_"/>

<path class="st163" d="M12.333,69.581c0-18.795,13.871-34.328,31.89-36.855     c-1.689-0.237-3.412-0.368-5.167-0.368C18.591,32.358,2,49.023,2,69.581s16.591,37.223,37.057,37.223     c1.754,0,3.477-0.131,5.167-0.368C26.205,103.909,12.333,88.376,12.333,69.581z" id="XMLID_285_"/>

<path class="st25" d="M14.799,79.477c-0.922,0-1.751-0.642-1.953-1.58c-0.584-2.715-0.88-5.513-0.88-8.315     c0-7.328,2.026-14.476,5.858-20.671c0.581-0.938,1.813-1.23,2.753-0.648c0.939,0.581,1.229,1.813,0.648,2.753     c-3.441,5.563-5.26,11.982-5.26,18.566c0,2.521,0.266,5.035,0.791,7.475c0.232,1.08-0.455,2.144-1.535,2.375     C15.08,79.462,14.938,79.477,14.799,79.477z"/>

<path class="st25" d="M17.16,85.34c-0.52,0-1.04-0.21-1.41-0.59c-0.37-0.37-0.59-0.88-0.59-1.41c0-0.13,0.02-0.26,0.04-0.39     c0.03-0.13,0.07-0.25,0.12-0.37c0.05-0.12,0.11-0.24,0.18-0.35c0.07-0.11,0.16-0.21,0.25-0.3c0.09-0.1,0.19-0.18,0.3-0.25     c0.11-0.07,0.23-0.14,0.35-0.19c0.12-0.05,0.25-0.08,0.37-0.11c0.65-0.13,1.34,0.08,1.81,0.55c0.09,0.09,0.17,0.19,0.25,0.3     c0.07,0.11,0.13,0.23,0.18,0.35c0.05,0.12,0.09,0.24,0.11,0.37c0.03,0.13,0.04,0.26,0.04,0.39c0,0.53-0.21,1.04-0.58,1.41     C18.21,85.13,17.69,85.34,17.16,85.34z"/>

<ellipse class="st164" cx="88.739" cy="88.644" id="XMLID_92_" rx="37.261" ry="37.356"/>

<path class="st165" d="M88.738,122.9c-18.837,0-34.161-15.367-34.161-34.255s15.324-34.256,34.161-34.256     S122.9,69.756,122.9,88.645S107.575,122.9,88.738,122.9z" id="XMLID_279_"/>

<path class="st163" d="M88.738,119.8c-17.127,0-31.061-13.976-31.061-31.155     c0-17.18,13.934-31.156,31.061-31.156S119.8,71.465,119.8,88.645C119.8,105.824,105.866,119.8,88.738,119.8z" id="XMLID_395_"/>

<path class="st161" d="M88.739,88.644L81.36,66.138c-0.882-2.69,0.623-5.573,3.36-6.439l0.034-0.011      c2.605-0.824,5.408-0.822,8.012,0.006h0c2.733,0.869,4.233,3.75,3.352,6.436L88.739,88.644z" id="XMLID_91_"/>

<path class="st161" d="M88.739,88.644l-23.763-5.049c-2.84-0.603-4.659-3.31-4.063-6.045l0.007-0.034      c0.567-2.603,1.971-4.959,4.011-6.735l0,0c2.142-1.864,5.461-1.685,7.417,0.399L88.739,88.644z" id="XMLID_90_"/>

<path class="st161" d="M88.739,88.644l-16.384,17.458c-1.958,2.086-5.281,2.263-7.422,0.394l-0.027-0.023      c-2.038-1.779-3.438-4.137-4.001-6.741v0c-0.591-2.733,1.228-5.434,4.064-6.037L88.739,88.644z" id="XMLID_89_"/>

<path class="st161" d="M88.739,88.644l7.378,22.507c0.882,2.69-0.623,5.573-3.36,6.439l-0.034,0.011      c-2.605,0.824-5.408,0.822-8.012-0.006h0c-2.733-0.869-4.233-3.75-3.352-6.436L88.739,88.644z" id="XMLID_75_"/>

<path class="st161" d="M88.739,88.644l23.763,5.049c2.84,0.603,4.659,3.31,4.063,6.045l-0.007,0.034      c-0.567,2.603-1.971,4.959-4.011,6.735h0c-2.142,1.864-5.461,1.685-7.417-0.399L88.739,88.644z" id="XMLID_74_"/>

<path class="st161" d="M88.739,88.644l16.384-17.458c1.958-2.086,5.281-2.263,7.422-0.394l0.027,0.023      c2.038,1.779,3.438,4.137,4.001,6.741v0c0.591,2.733-1.228,5.434-4.064,6.037L88.739,88.644z" id="XMLID_73_"/>

<path class="st166" d="M88.737,68.449c-1.104,0-2-0.896-2-2v-4.277c0-1.104,0.896-2,2-2s2,0.896,2,2v4.277      C90.737,67.554,89.842,68.449,88.737,68.449z"/>

<path class="st166" d="M69.445,80.065c-0.333,0-0.671-0.083-0.982-0.259l-3.786-2.139c-0.961-0.543-1.301-1.763-0.757-2.725      c0.543-0.962,1.763-1.301,2.725-0.757l3.786,2.139c0.961,0.543,1.301,1.763,0.757,2.725      C70.82,79.699,70.143,80.065,69.445,80.065z"/>

<path class="st166" d="M64.631,103.365c-0.698,0-1.376-0.366-1.744-1.017c-0.543-0.962-0.204-2.182,0.758-2.725l3.786-2.138      c0.963-0.542,2.182-0.204,2.725,0.758s0.204,2.182-0.758,2.725l-3.786,2.138C65.302,103.282,64.964,103.365,64.631,103.365z"/>

<path class="st166" d="M88.74,117.117c-1.104,0-2-0.896-2-2v-4.277c0-1.104,0.896-2,2-2s2,0.896,2,2v4.277      C90.74,116.221,89.844,117.117,88.74,117.117z"/>

<path class="st166" d="M112.848,103.363c-0.333,0-0.671-0.083-0.982-0.259l-3.786-2.139c-0.961-0.543-1.301-1.763-0.757-2.725      c0.543-0.961,1.763-1.301,2.725-0.757l3.786,2.139c0.961,0.543,1.301,1.763,0.757,2.725      C114.223,102.998,113.545,103.363,112.848,103.363z"/>

<path class="st166" d="M109.064,80.063c-0.698,0-1.375-0.366-1.743-1.017c-0.543-0.962-0.204-2.182,0.757-2.725l3.786-2.139      c0.963-0.545,2.182-0.204,2.725,0.757c0.543,0.962,0.204,2.182-0.757,2.725l-3.786,2.139      C109.735,79.979,109.397,80.063,109.064,80.063z"/>

<ellipse class="st167" cx="88.739" cy="88.644" id="XMLID_76_" rx="8.503" ry="8.538"/>

</svg>
